<?xml version="1.0" encoding="utf-8"?>
<!-- Generator: Adobe Illustrator 22.0.1, SVG Export Plug-In . SVG Version: 6.00 Build 0)  -->
<svg version="1.1" id="Layer_1" xmlns="http://www.w3.org/2000/svg" xmlns:xlink="http://www.w3.org/1999/xlink" x="0px" y="0px"
	 viewBox="0 0 1366 768" style="enable-background:new 0 0 1366 768;" xml:space="preserve">
<style type="text/css">
	.st0{fill:#FFFFFF;}
	.st1{fill-rule:evenodd;clip-rule:evenodd;fill:#FFFFFF;}
	.st2{fill-rule:evenodd;clip-rule:evenodd;}
</style>
<polygon points="301,528 236,528 247,650 301,650 355,650 366,528 "/>
<path class="st0" d="M315.8,609.5h-29.7c-3.1,0-5.7-2.5-5.7-5.7v-29.7c0-3.1,2.5-5.7,5.7-5.7h29.7c3.1,0,5.7,2.5,5.7,5.7v29.7
	C321.5,607,319,609.5,315.8,609.5z M301,580c-5,0-9,4-9,9s4,9,9,9s9-4,9-9S306,580,301,580z M316.3,573.3h-6v6h6V573.3z"/>
</svg>
