<?xml version="1.0" encoding="utf-8"?>
<!-- Generator: Adobe Illustrator 22.0.1, SVG Export Plug-In . SVG Version: 6.00 Build 0)  -->
<svg version="1.1" id="Layer_1" xmlns="http://www.w3.org/2000/svg" xmlns:xlink="http://www.w3.org/1999/xlink" x="0px" y="0px"
	 viewBox="0 0 1366 768" style="enable-background:new 0 0 1366 768;" xml:space="preserve">
<style type="text/css">
	.st0{fill:#FFFFFF;}
	.st1{fill-rule:evenodd;clip-rule:evenodd;fill:#FFFFFF;}
	.st2{fill-rule:evenodd;clip-rule:evenodd;}
</style>
<polygon points="301,122 236,122 247,244 301,244 355,244 366,122 "/>
<polygon points="301,445 236,445 247,323 301,323 355,323 366,445 "/>
<polygon points="301,528 236,528 247,650 301,650 355,650 366,528 "/>
<path class="st0" d="M315.8,609.5h-29.7c-3.1,0-5.7-2.5-5.7-5.7v-29.7c0-3.1,2.5-5.7,5.7-5.7h29.7c3.1,0,5.7,2.5,5.7,5.7v29.7
	C321.5,607,319,609.5,315.8,609.5z M301,580c-5,0-9,4-9,9s4,9,9,9s9-4,9-9S306,580,301,580z M316.3,573.3h-6v6h6V573.3z"/>
<path class="st0" d="M296.6,207v-23.2h-7.7v-8h7.7V167c0-5.2,4.7-8.7,8.5-8.7h8.6v7.3h-4c-2,0-4.6,1.6-4.6,3.5v6.6h7.7v8h-7.7V207
	H296.6z"/>
<path class="st0" d="M315.4,399h-28.8c-4.9,0-8.9-4-8.9-8.9v-14.2c0-4.9,4-8.9,8.9-8.9h28.8c4.9,0,8.9,4,8.9,8.9v14.2
	C324.3,395,320.3,399,315.4,399z M307.6,383l-11.1-7.1v14.2L307.6,383z"/>
</svg>
